<?xml version="1.0" encoding="UTF-8" standalone="no"?>
<!DOCTYPE svg PUBLIC "-//W3C//DTD SVG 20010904//EN" "http://www.w3.org/TR/2001/REC-SVG-20010904/DTD/svg10.dtd">
<svg version="1.0" xmlns="http://www.w3.org/2000/svg" width="1274.000000pt" height="1280.000000pt" viewBox="0 0 1274.000000 1280.000000" preserveAspectRatio="xMidYMid meet"><script xmlns=""/>
<metadata>
Created by potrace 1.15, written by Peter Selinger 2001-2017
</metadata>
<g transform="translate(0.000000,1280.000000) scale(0.100000,-0.100000)" fill="#000000" stroke="none">
<path d="M4215 12701 c-38 -5 -108 -16 -153 -26 -472 -96 -895 -491 -1065 -995 -31 -91 -89 -373 -116 -565 -51 -359 -53 -773 -6 -1139 8 -61 13 -112 10 -114 -2 -3 -62 5 -132 16 -196 33 -412 46 -638 38 -228 -7 -338 -17 -550 -51 -485 -79 -730 -174 -992 -387 -258 -210 -444 -552 -484 -889 -16 -145 -7 -335 21 -424 109 -342 427 -581 750 -563 74 5 99 11 161 41 133 65 231 165 292 297 34 75 46 165 27 210 -19 47 -65 80 -110 80 -43 0 -57 -10 -185 -129 -100 -93 -146 -115 -229 -109 -251 16 -446 344 -344 580 58 136 296 277 522 310 105 15 132 8 139 -34 27 -164 164 -299 318 -315 108 -11 342 34 457 89 84 39 193 142 228 215 64 130 33 363 -80 607 l-34 74 42 15 c65 24 136 45 201 59 77 17 395 17 490 0 117 -21 209 -44 221 -56 6 -6 21 -40 33 -76 113 -323 288 -647 515 -950 137 -184 408 -502 510 -599 20 -19 36 -38 36 -41 0 -4 -21 -3 -47 1 -27 4 -93 8 -148 8 -220 2 -371 -78 -411 -216 -20 -69 -10 -121 36 -193 l29 -45 -147 -11 c-239 -18 -409 -76 -512 -173 -55 -52 -69 -95 -52 -162 l10 -40 -41 -21 c-59 -31 -156 -31 -218 0 -67 33 -127 88 -154 143 -20 38 -25 64 -25 121 0 98 14 142 61 193 68 74 163 92 314 58 76 -16 76 -16 98 6 20 19 22 32 22 119 -1 128 -13 151 -104 196 -102 52 -178 68 -296 64 -130 -4 -191 -31 -290 -132 -145 -147 -200 -327 -161 -526 41 -206 188 -402 375 -499 113 -59 183 -74 344 -77 l138 -2 28 -40 c16 -21 46 -50 68 -63 33 -21 50 -24 128 -23 62 0 116 7 172 23 116 32 314 132 477 240 77 51 145 95 151 97 7 3 25 -23 43 -59 39 -79 102 -151 156 -179 63 -34 173 -31 247 4 113 56 215 193 269 363 17 53 24 104 27 207 l6 138 55 -51 c31 -28 91 -78 134 -110 43 -33 78 -62 78 -65 0 -2 -17 -39 -39 -82 -207 -412 -209 -951 -7 -1395 l34 -75 -67 -50 c-36 -28 -91 -76 -121 -106 -30 -31 -58 -56 -62 -56 -4 0 -8 45 -8 100 0 173 -40 311 -126 441 -102 154 -256 221 -396 173 -61 -20 -128 -89 -174 -178 -20 -39 -38 -73 -40 -74 -1 -2 -56 34 -121 80 -151 107 -217 147 -345 207 -160 75 -322 112 -409 91 -51 -12 -133 -75 -144 -109 -5 -16 -21 -19 -143 -24 -159 -6 -224 -21 -342 -79 -70 -34 -102 -59 -180 -138 -102 -102 -160 -194 -196 -315 -25 -85 -25 -261 0 -335 33 -98 79 -173 151 -245 93 -93 162 -127 271 -133 100 -5 158 7 286 60 117 48 126 61 135 185 6 77 -14 156 -42 166 -7 3 -37 -1 -67 -9 -29 -8 -89 -15 -134 -16 -65 -1 -89 3 -127 21 -86 42 -127 119 -127 238 0 95 20 143 81 202 64 62 130 91 204 91 69 0 153 -34 146 -60 -25 -103 -1 -159 96 -222 117 -77 246 -118 429 -139 54 -6 118 -13 140 -15 l42 -5 -33 -55 c-40 -66 -50 -117 -35 -174 42 -157 216 -242 465 -227 55 4 111 10 125 13 19 6 1 -18 -70 -95 -528 -568 -766 -939 -984 -1533 -20 -54 -16 -52 -191 -90 -85 -19 -132 -22 -315 -22 -207 0 -218 1 -303 27 -49 15 -106 36 -128 47 l-39 20 24 48 c34 67 90 232 111 325 12 55 16 106 13 170 -5 115 -34 175 -122 262 -101 99 -232 151 -455 180 -103 14 -121 14 -175 0 -140 -36 -260 -169 -282 -311 -7 -50 -22 -55 -134 -43 -193 21 -409 135 -497 263 -53 78 -68 145 -55 241 16 109 59 194 136 270 81 79 141 108 232 113 91 5 128 -13 237 -117 45 -43 93 -85 107 -94 53 -36 144 -8 176 56 27 50 15 141 -29 230 -81 164 -247 290 -418 318 -122 20 -311 -24 -429 -98 -173 -109 -325 -330 -366 -533 -20 -100 -15 -336 11 -460 73 -362 291 -681 610 -892 227 -151 411 -217 770 -277 425 -71 942 -81 1317 -25 126 18 131 18 124 -3 -16 -50 -47 -314 -58 -483 -28 -460 59 -1115 189 -1417 143 -333 412 -623 716 -772 194 -95 391 -136 622 -128 125 3 150 7 237 37 236 79 445 270 514 470 85 244 44 419 -141 606 -98 100 -172 145 -264 162 -87 16 -144 -7 -177 -70 -34 -65 -13 -113 102 -236 46 -50 91 -107 99 -126 18 -42 19 -130 3 -177 -31 -93 -131 -197 -238 -248 -71 -34 -80 -36 -180 -36 -131 0 -173 18 -266 117 -112 119 -194 321 -194 478 l0 77 53 12 c158 35 280 149 306 285 5 26 5 85 -1 135 -26 265 -143 485 -301 569 -48 25 -61 27 -172 27 -106 0 -134 -4 -235 -33 -63 -18 -152 -47 -198 -64 -45 -17 -85 -28 -88 -25 -13 13 -56 160 -70 241 -27 152 -5 513 39 667 l12 41 140 52 c260 98 476 206 685 341 193 125 516 381 804 637 l59 53 -7 -40 c-44 -249 22 -488 153 -554 84 -42 161 -34 244 25 26 19 49 34 51 34 2 0 6 -62 9 -138 7 -167 31 -273 92 -397 83 -171 159 -223 266 -180 13 5 21 -5 35 -42 27 -70 23 -146 -10 -212 -63 -126 -140 -181 -252 -181 -113 0 -191 43 -239 132 -25 45 -29 63 -28 128 0 41 8 101 16 133 9 33 13 65 10 73 -9 24 -72 37 -157 31 -98 -6 -128 -18 -159 -66 -75 -114 -102 -211 -95 -343 5 -104 36 -176 110 -255 133 -141 312 -206 508 -183 169 20 289 80 421 210 68 68 94 102 128 170 59 120 72 175 78 338 3 78 10 142 15 142 4 0 29 19 53 41 68 63 82 120 61 246 -28 163 -94 304 -272 576 -57 87 -104 159 -104 161 0 1 33 19 74 40 127 65 194 149 203 257 13 144 -94 279 -301 379 -106 51 -197 72 -323 73 -57 1 -103 4 -103 7 0 3 16 22 36 41 19 18 63 69 96 112 34 42 65 77 70 77 5 0 30 -11 56 -24 70 -35 226 -92 320 -115 372 -95 791 -53 1121 113 40 21 74 36 75 34 8 -13 101 -126 151 -182 l60 -69 -52 7 c-66 8 -209 -8 -293 -35 -161 -51 -310 -161 -365 -269 -57 -112 -28 -253 68 -336 23 -20 75 -52 114 -73 l73 -36 -61 -85 c-168 -232 -263 -413 -304 -575 -45 -178 -28 -274 62 -339 l45 -33 3 -144 c2 -159 18 -229 78 -344 40 -76 180 -219 264 -269 160 -95 373 -126 540 -77 118 34 266 158 319 266 26 53 29 73 32 168 4 122 -13 196 -71 302 -43 80 -65 90 -194 90 -129 0 -144 -10 -124 -82 7 -27 15 -84 18 -128 5 -69 2 -88 -17 -133 -60 -139 -238 -193 -381 -116 -119 65 -183 242 -130 360 l19 41 52 -11 c46 -9 56 -8 95 13 103 55 187 249 216 503 6 57 14 127 18 157 l6 54 30 -25 c71 -59 133 -76 208 -54 98 28 167 112 202 247 16 59 19 247 6 317 -9 47 -3 52 25 21 10 -12 82 -76 159 -143 551 -479 907 -702 1394 -876 l104 -37 14 -44 c59 -202 78 -563 35 -714 -12 -44 -34 -108 -48 -141 l-25 -61 -72 29 c-40 16 -126 45 -192 65 -109 33 -131 37 -245 37 -117 1 -129 -1 -181 -26 -70 -35 -168 -132 -207 -206 -56 -107 -102 -312 -102 -463 0 -147 111 -264 302 -318 l63 -18 -3 -64 c-5 -86 -29 -201 -57 -272 -51 -124 -164 -262 -255 -309 -39 -20 -59 -23 -155 -23 -103 0 -114 2 -178 32 -80 38 -191 142 -227 213 -28 54 -37 152 -20 205 7 22 45 71 94 124 128 135 140 155 137 219 -2 34 -61 92 -101 101 -158 32 -391 -132 -494 -349 -30 -62 -31 -70 -30 -195 0 -114 3 -140 27 -211 74 -223 283 -416 537 -496 68 -21 93 -23 260 -22 163 0 199 4 296 26 363 85 655 298 878 641 72 109 146 266 179 377 51 167 105 472 132 745 27 264 15 741 -25 989 -5 33 -8 61 -7 63 2 1 37 -4 78 -11 324 -62 809 -63 1214 -2 166 25 394 74 497 107 114 36 310 130 400 190 322 217 541 551 603 923 23 137 23 351 0 441 -65 260 -270 490 -506 570 -206 70 -368 51 -522 -62 -135 -99 -244 -304 -223 -419 10 -51 72 -114 113 -114 35 0 54 12 172 118 52 46 113 93 135 105 60 31 144 29 219 -5 70 -33 174 -130 210 -196 65 -120 74 -275 22 -370 -86 -158 -360 -301 -577 -302 -66 0 -68 1 -74 28 -40 181 -143 292 -302 322 -40 7 -83 6 -169 -5 -194 -26 -323 -80 -433 -182 -125 -116 -162 -235 -126 -411 19 -92 76 -262 112 -333 14 -29 20 -50 14 -54 -28 -17 -165 -57 -240 -71 -101 -17 -354 -20 -461 -4 -40 6 -112 20 -159 32 l-85 20 -54 142 c-63 166 -196 442 -278 577 -150 245 -388 553 -646 831 l-120 129 64 -8 c117 -15 248 -9 324 15 210 64 292 230 189 383 -19 28 -34 53 -34 55 0 2 42 4 93 4 208 1 396 49 520 134 34 23 73 58 86 77 20 30 22 42 18 102 l-6 68 42 20 c97 43 223 14 309 -73 64 -64 83 -109 82 -198 0 -90 -16 -140 -58 -188 -64 -73 -185 -94 -331 -58 -95 23 -111 3 -109 -135 2 -106 22 -146 94 -181 116 -56 178 -72 290 -73 98 0 110 2 172 32 130 61 253 217 293 369 32 123 11 303 -50 426 -41 81 -133 195 -205 255 -133 111 -269 155 -477 154 l-121 0 -26 37 c-76 110 -200 125 -419 52 -124 -42 -241 -104 -423 -226 -86 -57 -158 -104 -162 -104 -4 0 -21 31 -39 68 -65 139 -149 202 -269 202 -136 0 -258 -88 -341 -246 -61 -116 -84 -206 -90 -356 l-6 -127 -91 77 c-50 42 -106 88 -124 102 l-32 25 40 94 c53 121 85 220 112 345 30 138 33 492 5 631 -31 153 -101 346 -175 487 -1 3 25 28 60 54 35 26 96 76 136 112 l72 64 0 -95 c0 -347 191 -636 423 -641 141 -2 208 56 314 272 0 2 34 -21 75 -51 205 -152 413 -266 558 -307 41 -11 113 -23 160 -26 76 -5 90 -3 130 18 25 13 60 43 78 67 l33 44 122 3 c85 1 146 9 200 23 366 96 613 476 532 819 -37 156 -164 315 -305 381 -48 22 -68 25 -155 25 -96 -1 -106 -3 -224 -50 -78 -31 -129 -57 -138 -71 -24 -37 -38 -157 -24 -218 17 -77 25 -81 125 -60 218 46 340 -22 368 -203 20 -129 -38 -238 -164 -308 -66 -36 -159 -40 -226 -10 l-42 19 6 62 c8 74 -6 106 -68 160 -99 85 -290 147 -514 167 l-133 12 20 27 c84 118 77 221 -21 319 -40 41 -71 62 -116 78 -94 34 -198 45 -309 33 -52 -6 -99 -11 -105 -11 -6 0 29 42 78 93 491 510 758 916 965 1467 l43 114 44 13 c121 36 277 56 450 57 180 1 234 -6 360 -46 104 -33 103 -32 84 -76 -38 -86 -87 -234 -110 -327 -42 -176 -29 -277 53 -386 52 -68 134 -134 220 -174 137 -65 394 -103 483 -71 135 49 228 164 265 330 l6 29 87 -6 c99 -6 222 -42 326 -94 100 -51 216 -167 246 -248 42 -115 12 -267 -76 -384 -105 -140 -266 -204 -382 -151 -24 11 -83 58 -132 105 -125 120 -171 135 -247 79 -101 -75 -50 -269 111 -429 88 -87 151 -126 241 -150 106 -27 263 -13 383 34 209 83 400 309 464 550 26 99 27 312 3 456 -96 561 -545 1019 -1135 1159 -377 90 -893 134 -1260 107 -157 -12 -370 -36 -416 -47 -21 -5 -21 -5 -8 73 63 358 69 761 18 1168 -23 182 -89 500 -123 592 -84 229 -218 431 -407 613 -260 251 -561 373 -924 374 -121 1 -159 -3 -228 -22 -245 -67 -458 -249 -545 -466 -36 -89 -50 -183 -45 -293 5 -82 10 -102 41 -166 90 -181 265 -320 417 -333 76 -6 103 5 137 55 28 41 30 101 6 139 -10 15 -50 63 -90 107 -129 141 -151 221 -93 343 92 195 342 309 527 241 45 -17 74 -38 133 -98 80 -80 128 -163 170 -291 24 -72 47 -228 38 -252 -4 -9 -38 -25 -80 -38 -128 -38 -216 -110 -264 -214 -25 -55 -26 -65 -21 -165 14 -279 143 -529 312 -608 118 -55 315 -31 586 71 69 26 96 32 101 23 13 -20 46 -131 63 -213 20 -99 20 -317 0 -482 -14 -114 -38 -239 -48 -248 -2 -2 -58 -24 -125 -48 -240 -88 -489 -210 -692 -341 -196 -127 -500 -368 -740 -588 -63 -58 -116 -105 -117 -104 -1 1 3 22 7 47 15 73 12 250 -5 313 -42 160 -133 249 -254 249 -62 0 -117 -19 -168 -58 -18 -14 -33 -21 -33 -17 -3 115 -24 307 -40 368 -23 89 -82 218 -129 282 -44 61 -81 77 -157 70 l-61 -6 -16 37 c-25 59 -28 87 -16 144 36 174 208 289 365 243 47 -13 69 -27 111 -70 68 -70 83 -129 64 -249 -26 -159 -26 -144 5 -157 39 -16 170 -15 216 0 47 16 77 51 125 148 l38 77 0 130 c0 122 -2 135 -27 189 -35 74 -141 181 -223 224 -112 59 -149 67 -285 68 -112 0 -135 -3 -214 -29 -112 -37 -210 -101 -302 -198 -126 -134 -181 -275 -191 -493 l-6 -129 -53 -49 c-66 -60 -78 -95 -72 -201 11 -161 93 -346 279 -627 54 -82 99 -153 99 -157 0 -4 -26 -19 -58 -34 -84 -39 -154 -98 -187 -160 -39 -71 -41 -168 -5 -242 39 -81 128 -160 244 -216 131 -64 211 -83 357 -84 l115 -1 -71 -80 c-39 -44 -90 -106 -114 -137 -24 -32 -47 -58 -51 -58 -4 0 -40 15 -81 34 -427 195 -933 192 -1373 -8 l-74 -34 -33 47 c-19 25 -69 87 -111 138 -43 51 -78 93 -78 95 0 2 36 2 79 0 255 -11 538 124 622 296 31 64 32 168 2 234 -29 63 -101 130 -184 170 -38 18 -69 37 -69 41 0 5 33 55 73 110 142 198 224 347 272 497 31 98 44 238 26 291 -12 36 -56 89 -97 115 -23 16 -24 20 -24 143 0 210 -51 354 -172 486 -146 159 -331 245 -528 245 -158 0 -288 -51 -400 -156 -96 -91 -133 -168 -138 -290 -2 -49 1 -115 7 -146 16 -74 83 -213 114 -233 54 -35 237 -39 270 -6 7 7 4 43 -8 106 -28 150 -8 235 71 305 49 43 92 60 168 67 50 4 71 1 114 -17 134 -58 217 -245 168 -375 l-17 -44 -67 5 c-56 5 -72 2 -100 -15 -39 -25 -103 -121 -133 -200 -31 -84 -66 -248 -73 -347 -4 -49 -9 -106 -12 -126 l-6 -38 -31 24 c-102 76 -214 80 -296 10 -56 -48 -87 -105 -112 -205 -18 -71 -21 -102 -16 -199 4 -63 9 -126 13 -139 5 -18 -34 12 -137 104 -247 220 -542 450 -742 579 -190 122 -444 246 -679 332 -67 24 -125 50 -130 57 -12 19 -46 182 -57 272 -34 275 -18 442 61 628 16 37 25 46 37 41 67 -28 218 -78 303 -101 78 -20 128 -27 203 -27 94 -1 105 1 167 32 125 61 224 194 267 359 30 115 52 302 42 357 -23 123 -141 229 -301 269 l-55 14 -3 43 c-8 109 44 299 110 402 53 84 142 174 200 204 142 73 355 20 485 -119 73 -79 103 -144 103 -221 0 -80 -22 -121 -121 -231 -96 -106 -119 -140 -119 -179 0 -40 34 -91 74 -110 152 -72 455 137 537 369 41 116 23 310 -39 447 -89 193 -309 371 -529 429 -88 23 -260 32 -368 20z m4979 -1384 c24 -17 24 -91 1 -117 -22 -24 -62 -26 -93 -4 -27 19 -31 88 -5 116 19 21 71 24 97 5z m1970 -1883 c21 -21 21 -92 -1 -116 -20 -22 -61 -23 -91 -2 -27 19 -31 88 -5 116 20 22 76 24 97 2z m-1754 -9 c0 -10 -83 -170 -151 -291 -361 -645 -895 -1240 -1473 -1644 -49 -34 -95 -64 -102 -67 -7 -2 -61 45 -121 105 -59 60 -125 122 -146 139 l-37 29 82 121 c406 595 1062 1158 1793 1540 136 70 155 79 155 68z m-5927 -66 c341 -171 674 -389 987 -649 165 -137 511 -485 632 -635 97 -122 268 -366 268 -382 0 -5 -37 -42 -82 -81 -46 -40 -108 -102 -138 -137 -30 -35 -59 -65 -63 -65 -30 -1 -348 234 -526 388 -385 336 -716 741 -1000 1227 -87 148 -216 395 -206 395 3 0 60 -28 128 -61z m1659 -4067 c42 -48 107 -114 147 -147 39 -32 71 -63 71 -67 0 -12 -68 -115 -143 -218 -337 -457 -890 -938 -1491 -1297 -144 -86 -376 -208 -376 -198 0 12 114 232 186 357 367 642 876 1209 1421 1583 59 41 109 74 109 75 1 0 35 -39 76 -88z m2784 -73 c199 -149 323 -258 509 -444 309 -309 528 -597 771 -1012 76 -130 204 -374 204 -389 0 -3 -78 35 -172 84 -822 427 -1412 927 -1782 1511 l-65 103 63 54 c68 57 236 233 236 246 0 13 109 -58 236 -153z"/>
<path d="M990 12482 c-115 -39 -211 -109 -266 -196 l-28 -44 -60 48 c-146 114 -205 134 -245 84 -43 -55 -30 -89 93 -239 l58 -70 -23 -15 c-102 -66 -181 -159 -220 -260 -28 -71 -32 -209 -7 -256 51 -94 195 -164 488 -238 152 -39 300 -85 300 -95 0 -3 -64 -7 -143 -7 -287 -3 -488 -60 -556 -159 -48 -70 -21 -165 65 -230 l34 -26 -33 -39 c-51 -59 -67 -118 -67 -240 0 -267 109 -422 347 -497 71 -22 96 -25 176 -21 131 6 161 26 181 118 7 32 -8 99 -27 117 -8 8 -63 32 -122 54 -60 22 -127 50 -148 62 -106 59 -103 224 5 342 103 112 273 159 501 135 220 -22 379 -81 656 -240 188 -108 216 -114 275 -52 45 45 61 97 46 150 -5 20 -35 82 -65 137 -84 151 -181 352 -204 422 -51 152 -74 413 -47 526 20 86 43 131 101 194 65 73 148 113 234 113 115 0 142 -30 200 -216 18 -56 40 -109 49 -117 25 -23 99 -39 142 -32 72 12 99 68 100 205 0 127 -49 256 -135 348 -94 102 -205 146 -370 146 -116 1 -182 -17 -250 -69 l-44 -34 -26 35 c-64 84 -159 111 -224 65 -106 -75 -171 -284 -172 -551 l-1 -135 -20 45 c-11 25 -35 104 -54 175 -90 335 -154 485 -233 540 -38 27 -52 30 -124 32 -58 2 -98 -2 -137 -15z m70 -669 c152 -49 279 -132 411 -269 90 -94 144 -172 203 -293 43 -88 84 -226 72 -238 -11 -11 -146 37 -239 85 -211 108 -380 267 -481 452 -31 59 -83 199 -100 273 -7 28 -6 29 26 22 18 -4 67 -19 108 -32z"/>
<path d="M11523 12479 c-91 -45 -147 -159 -238 -489 -46 -169 -87 -290 -97 -290 -2 0 -2 31 0 68 6 94 -14 292 -37 383 -25 98 -56 163 -100 209 -73 77 -163 71 -240 -16 -43 -49 -51 -52 -75 -25 -27 29 -125 68 -191 76 -81 8 -217 -9 -290 -37 -132 -50 -260 -220 -288 -381 -12 -71 0 -183 26 -236 19 -40 77 -57 145 -43 30 6 63 19 73 28 10 9 34 68 54 132 55 174 83 202 197 202 150 0 284 -126 329 -310 16 -68 17 -240 0 -340 -25 -152 -96 -322 -228 -547 -112 -191 -122 -237 -66 -303 58 -69 126 -78 224 -27 35 18 116 62 179 98 256 145 407 196 615 206 75 4 147 1 192 -6 179 -31 319 -150 340 -291 21 -134 -16 -180 -192 -236 -133 -43 -158 -64 -169 -139 -14 -109 26 -158 142 -171 194 -21 427 103 505 268 35 74 50 144 51 243 1 117 -10 165 -55 236 l-40 62 44 41 c59 55 81 98 72 145 -25 133 -211 205 -570 219 l-160 7 85 32 c47 18 171 58 275 88 232 68 352 122 406 183 45 51 54 88 46 183 -11 133 -85 257 -203 344 l-65 48 39 41 c124 131 163 225 107 262 -31 20 -83 21 -121 1 -16 -8 -67 -47 -112 -86 -45 -39 -82 -67 -82 -62 0 19 -141 158 -191 188 -105 63 -256 82 -336 42z m317 -623 c0 -17 -54 -183 -75 -231 -94 -212 -310 -419 -556 -534 -92 -43 -197 -77 -207 -66 -3 3 1 35 11 71 72 276 286 540 541 669 107 54 286 111 286 91z"/>
<path d="M11799 2810 c-26 -4 -56 -13 -69 -20 -33 -18 -53 -74 -45 -132 11 -78 36 -99 168 -141 166 -53 200 -88 200 -202 0 -78 -26 -138 -88 -204 -91 -98 -185 -132 -355 -132 -172 1 -322 26 -451 74 -75 29 -238 111 -399 202 -63 36 -126 65 -141 65 -36 0 -88 -38 -110 -80 -39 -73 -23 -127 98 -341 152 -267 198 -418 210 -679 8 -189 -18 -282 -109 -385 -64 -74 -219 -123 -301 -96 -55 18 -82 60 -122 183 -45 140 -49 147 -90 164 -79 33 -175 8 -195 -50 -49 -142 2 -359 115 -484 103 -113 190 -147 385 -147 149 0 178 8 243 64 l36 32 36 -40 c59 -65 98 -84 156 -79 134 13 214 207 228 553 l6 160 23 -59 c13 -33 45 -141 72 -240 82 -299 145 -436 220 -478 30 -16 51 -19 145 -16 99 3 117 7 175 34 110 53 169 108 226 212 1 1 41 -27 90 -64 131 -99 168 -111 209 -69 18 17 25 35 25 64 0 42 -22 76 -122 193 l-49 57 43 29 c150 104 238 267 225 420 -6 75 -33 115 -117 174 -72 51 -170 87 -399 148 -106 28 -216 62 -244 75 l-52 23 100 -5 c286 -15 575 77 626 198 19 46 -5 110 -63 175 l-49 53 30 38 c50 63 64 114 64 238 0 171 -35 274 -121 363 -112 115 -309 180 -463 152z m-697 -1050 c125 -47 297 -167 428 -299 106 -107 177 -201 234 -311 43 -84 81 -189 71 -198 -3 -3 -27 0 -55 6 -216 50 -448 212 -589 412 -86 122 -156 275 -177 387 -7 40 -10 40 88 3z"/>
<path d="M729 2778 c-91 -32 -173 -84 -229 -145 -86 -93 -120 -196 -120 -360 0 -116 18 -180 70 -244 l30 -38 -34 -26 c-56 -42 -86 -94 -86 -148 0 -39 5 -53 34 -85 44 -49 123 -87 245 -119 84 -23 117 -26 268 -27 95 -1 173 -2 173 -4 0 -9 -116 -49 -265 -93 -241 -71 -310 -95 -390 -135 -111 -56 -140 -91 -151 -186 -18 -154 80 -340 224 -425 29 -17 40 -29 34 -37 -169 -214 -191 -264 -133 -305 57 -41 110 -21 243 92 l65 55 53 -62 c69 -80 151 -141 224 -166 82 -28 228 -28 272 -1 82 50 141 182 229 513 25 92 56 191 69 220 l24 53 1 -131 c1 -146 18 -263 56 -381 73 -226 198 -277 326 -131 l36 41 39 -31 c59 -47 110 -64 209 -70 119 -6 215 10 292 49 175 89 294 326 263 525 -8 56 -16 74 -40 97 -26 23 -38 27 -94 27 -102 0 -122 -19 -171 -165 -49 -145 -58 -160 -113 -187 -84 -40 -204 -7 -291 80 -93 93 -131 202 -131 378 0 247 49 395 248 741 73 129 98 196 88 237 -9 38 -62 93 -102 106 -59 20 -104 3 -309 -116 -146 -84 -311 -158 -410 -184 -167 -43 -391 -45 -507 -4 -106 37 -213 134 -242 220 -33 98 -13 196 48 233 17 10 82 35 145 56 73 24 123 47 137 62 26 28 36 85 25 133 -22 91 -43 103 -181 107 -89 3 -115 0 -171 -19z m1037 -1015 c-3 -10 -10 -38 -16 -63 -64 -262 -294 -547 -539 -670 -101 -51 -276 -107 -285 -92 -8 14 47 180 85 256 55 108 90 157 181 252 134 139 297 243 476 304 103 35 105 35 98 13z"/>
</g>
</svg>