<?xml version="1.0" encoding="UTF-8" standalone="no"?>
<!DOCTYPE svg PUBLIC "-//W3C//DTD SVG 20010904//EN" "http://www.w3.org/TR/2001/REC-SVG-20010904/DTD/svg10.dtd">
<svg version="1.0" xmlns="http://www.w3.org/2000/svg" width="1280.000000pt" height="1280.000000pt" viewBox="0 0 1280.000000 1280.000000" preserveAspectRatio="xMidYMid meet"><script xmlns=""/>
<metadata>
Created by potrace 1.15, written by Peter Selinger 2001-2017
</metadata>
<g transform="translate(0.000000,1280.000000) scale(0.100000,-0.100000)" fill="#000000" stroke="none">
<path d="M6329 12777 c-31 -13 -69 -33 -85 -44 -49 -35 -122 -119 -146 -167 -15 -32 -29 -47 -47 -51 -14 -3 -170 -28 -346 -55 -176 -28 -360 -57 -410 -65 -49 -8 -176 -28 -281 -44 l-191 -30 -49 45 c-79 73 -208 124 -314 124 -29 0 -50 -9 -88 -40 -81 -64 -132 -148 -161 -263 l-17 -71 -565 -288 c-523 -266 -566 -286 -585 -273 -79 52 -248 71 -352 40 -59 -18 -85 -47 -129 -140 -26 -55 -28 -71 -29 -184 l-1 -123 -442 -442 -441 -441 -122 0 c-114 0 -128 -2 -183 -28 -96 -45 -122 -70 -141 -134 -26 -90 -16 -221 23 -304 l31 -67 -287 -563 -286 -563 -72 -17 c-119 -30 -198 -78 -265 -162 -29 -38 -38 -58 -38 -87 0 -107 52 -237 124 -313 l46 -47 -95 -603 c-52 -331 -97 -613 -100 -627 -4 -18 -21 -33 -60 -53 -107 -57 -219 -208 -219 -297 -1 -85 115 -242 219 -296 39 -21 56 -36 60 -54 3 -14 48 -296 100 -627 l95 -603 -46 -47 c-72 -76 -124 -206 -124 -313 0 -29 9 -50 40 -88 64 -81 148 -132 263 -161 l72 -17 286 -563 287 -563 -31 -67 c-39 -83 -49 -214 -23 -304 19 -64 45 -89 141 -134 55 -26 71 -28 184 -29 l123 -1 442 -442 441 -441 0 -122 c0 -114 2 -128 28 -183 45 -96 70 -122 134 -141 90 -26 221 -16 303 23 l65 31 505 -256 c278 -141 532 -270 565 -288 l59 -32 18 -71 c28 -113 79 -198 160 -261 38 -31 59 -40 88 -40 107 0 237 52 313 124 l47 46 128 -20 c469 -74 1081 -171 1102 -175 18 -4 33 -21 54 -60 54 -104 210 -219 296 -219 86 0 242 115 296 219 21 39 36 56 54 60 21 4 633 101 1102 175 l128 20 47 -46 c76 -72 206 -124 312 -124 47 0 113 47 164 117 49 68 66 104 85 184 l18 71 59 32 c33 18 287 147 565 288 l505 256 65 -31 c82 -39 213 -49 303 -23 64 19 89 45 134 141 26 55 28 69 28 183 l0 122 441 441 442 442 123 1 c113 1 129 3 184 29 96 45 122 70 141 134 26 90 16 221 -23 304 l-31 67 287 563 286 563 72 17 c115 29 199 80 263 161 31 38 40 59 40 88 0 107 -52 237 -124 313 l-46 47 95 603 c52 331 97 613 100 627 4 18 21 33 60 54 104 54 220 211 219 296 0 89 -112 240 -219 297 -39 20 -56 35 -60 53 -3 14 -48 296 -100 627 l-95 603 44 45 c73 77 126 209 126 315 0 29 -9 50 -40 88 -64 81 -148 132 -263 161 l-72 17 -286 563 -287 563 31 67 c39 83 49 214 23 304 -19 64 -45 89 -141 134 -55 26 -69 28 -183 28 l-122 0 -441 441 -442 442 -1 123 c-1 113 -3 129 -29 184 -44 93 -70 122 -129 140 -104 31 -273 12 -352 -40 -19 -13 -62 7 -585 273 l-565 288 -17 71 c-29 115 -80 199 -161 263 -38 31 -59 40 -88 40 -106 0 -235 -51 -314 -124 l-49 -45 -191 30 c-105 16 -231 36 -281 44 -49 8 -234 37 -410 65 -176 27 -331 52 -345 55 -18 4 -33 21 -54 60 -51 98 -186 203 -282 220 -18 3 -50 -3 -85 -18z m-281 -488 c-3 -24 -11 -25 -562 -113 -585 -92 -575 -92 -576 -45 0 13 36 22 203 48 111 18 364 59 562 90 198 32 364 55 368 51 5 -4 7 -18 5 -31z m1162 -34 c704 -111 680 -106 680 -124 -1 -47 9 -47 -576 45 -491 78 -559 91 -562 107 -6 28 5 46 25 41 10 -2 205 -33 433 -69z m-1089 -161 c22 -43 121 -127 184 -158 75 -36 115 -36 190 0 57 28 171 127 193 168 10 19 26 17 599 -73 323 -51 591 -96 594 -99 4 -4 12 -25 19 -47 27 -87 106 -192 177 -236 29 -18 45 -21 96 -16 81 6 166 37 229 83 l51 36 166 -85 c91 -46 331 -169 534 -272 l367 -187 0 -52 c0 -108 65 -271 123 -306 65 -40 210 -44 327 -9 l41 13 421 -421 421 -421 -18 -64 c-23 -79 -23 -186 -1 -261 15 -51 23 -62 63 -88 70 -44 145 -68 234 -77 l80 -7 270 -530 c159 -312 267 -535 262 -541 -73 -101 -102 -174 -110 -271 -5 -51 -2 -67 16 -96 44 -71 149 -150 236 -177 22 -7 43 -15 47 -19 3 -3 48 -271 99 -594 91 -574 93 -589 74 -599 -44 -23 -142 -136 -169 -193 -36 -75 -36 -116 0 -190 28 -57 111 -153 163 -188 l25 -17 -93 -587 c-51 -324 -96 -591 -99 -594 -4 -4 -29 -14 -56 -23 -70 -23 -139 -70 -197 -135 l-51 -56 5 -70 c6 -100 37 -177 110 -279 5 -6 -104 -230 -262 -541 l-270 -530 -78 -7 c-87 -7 -166 -33 -236 -77 -40 -26 -48 -37 -63 -88 -22 -75 -22 -182 1 -261 l18 -64 -421 -421 -421 -421 -41 13 c-117 35 -262 31 -327 -9 -58 -35 -123 -198 -123 -306 l0 -52 -532 -272 c-312 -158 -538 -268 -544 -263 -99 71 -176 103 -271 110 -51 5 -67 2 -96 -16 -73 -45 -152 -152 -178 -240 -7 -23 -18 -45 -23 -47 -10 -3 -659 -107 -1040 -166 -136 -21 -139 -21 -149 -2 -21 41 -135 140 -192 168 -75 36 -115 36 -190 0 -57 -28 -171 -127 -192 -168 -10 -19 -13 -19 -149 2 -381 59 -1030 163 -1040 166 -5 2 -16 24 -23 47 -26 88 -105 195 -178 240 -29 18 -45 21 -96 16 -95 -7 -172 -39 -271 -110 -6 -5 -231 104 -541 262 l-530 270 -7 78 c-7 87 -33 166 -77 236 -26 40 -37 48 -88 63 -75 22 -182 22 -261 -1 l-64 -18 -420 421 -421 420 18 64 c23 79 23 186 1 261 -15 51 -23 62 -63 88 -70 44 -149 70 -236 77 l-78 7 -270 530 c-158 311 -267 535 -262 541 73 101 103 177 110 279 l5 70 -51 56 c-58 65 -127 112 -197 135 -27 9 -52 19 -56 23 -3 3 -48 270 -99 594 l-93 587 25 17 c52 35 135 131 163 188 36 75 36 115 0 190 -28 57 -127 171 -169 193 -19 10 -17 25 74 599 51 323 96 591 99 594 4 4 25 12 47 19 87 27 192 106 236 177 18 29 21 44 16 98 -9 97 -40 172 -110 269 -5 6 103 229 262 541 l270 530 80 7 c89 9 164 33 234 77 40 26 48 37 63 88 22 75 22 182 -1 261 l-18 64 421 420 420 421 64 -18 c79 -23 186 -23 261 -1 51 15 62 23 88 63 45 72 70 150 76 235 l6 78 366 186 c201 102 441 225 532 271 l166 85 51 -36 c83 -60 226 -100 294 -83 33 9 112 79 150 135 18 26 42 74 54 107 14 40 28 61 40 64 56 11 1123 179 1145 180 18 1 30 -7 40 -25z m-1881 -193 c5 -11 10 -22 10 -25 0 -8 -121 -71 -581 -305 l-436 -221 -12 26 c-6 15 -9 29 -6 32 8 8 999 511 1007 512 4 0 12 -9 18 -19z m4846 -237 c277 -140 504 -257 504 -259 0 -2 -5 -15 -12 -29 l-11 -26 -436 221 c-460 234 -581 297 -581 305 0 10 21 44 26 44 3 0 233 -115 510 -256z m-6433 -702 c15 -17 -8 -42 -391 -425 l-408 -408 -19 21 c-19 21 -18 22 385 425 223 223 408 405 411 405 3 0 13 -8 22 -18z m7927 -387 c403 -403 404 -404 385 -425 l-19 -21 -408 408 c-383 383 -406 408 -391 425 9 10 19 18 22 18 3 0 188 -182 411 -405z m-9153 -998 c21 -12 17 -22 -235 -516 -141 -278 -262 -506 -267 -508 -6 -2 -19 3 -29 10 -18 13 -4 43 239 521 141 278 260 506 264 506 3 -1 16 -6 28 -13z m10238 -494 c243 -477 257 -507 239 -520 -10 -7 -23 -12 -29 -10 -5 2 -126 230 -267 508 -251 494 -256 504 -235 516 12 7 25 12 28 13 4 0 122 -228 264 -507z m-10966 -1202 c11 -7 -2 -105 -73 -557 -48 -302 -89 -555 -91 -562 -3 -8 -16 -12 -32 -10 -21 2 -27 8 -26 23 2 11 41 262 88 558 47 296 85 542 85 548 0 11 30 12 49 0z m11479 -188 c83 -521 143 -900 145 -918 1 -15 -5 -21 -26 -23 -16 -2 -29 2 -32 10 -2 7 -43 260 -91 562 -90 575 -90 565 -43 566 13 0 22 -36 47 -197z m-11643 -1655 c2 -7 43 -260 91 -562 91 -575 90 -565 43 -566 -13 0 -22 36 -48 203 -18 111 -58 365 -90 565 -32 199 -55 364 -53 367 11 10 53 4 57 -7z m11788 -13 c-2 -11 -41 -262 -88 -558 -47 -296 -85 -543 -85 -548 0 -5 -8 -9 -17 -9 -49 1 -50 -12 41 566 48 302 89 555 91 562 3 8 16 12 32 10 21 -2 27 -8 26 -23z m-11373 -1811 c9 -16 125 -243 258 -505 l242 -476 -27 -12 c-21 -10 -28 -9 -34 1 -5 7 -122 235 -260 507 -237 465 -251 495 -233 508 24 17 35 13 54 -23z m10955 23 c17 -13 2 -45 -234 -508 -138 -272 -255 -500 -260 -507 -6 -10 -13 -11 -34 -1 l-27 12 201 396 c111 218 224 441 252 496 69 136 68 136 102 112z m-9639 -1972 l408 -405 -22 -23 -22 -22 -407 407 c-403 403 -407 407 -388 428 10 11 19 20 21 20 1 0 186 -182 410 -405z m8311 -42 l-407 -408 -22 23 -22 22 408 406 409 406 21 -21 21 -21 -408 -407z m-6852 -1023 c264 -135 489 -249 499 -255 26 -13 29 -27 13 -49 -13 -18 -42 -5 -508 233 -272 138 -500 255 -507 260 -10 6 -11 13 -1 35 7 14 15 25 18 24 3 -2 222 -113 486 -248z m5854 223 c10 -21 9 -28 -1 -34 -7 -5 -235 -122 -507 -260 -466 -238 -495 -251 -508 -233 -15 21 -13 34 8 46 20 13 983 505 990 507 3 0 11 -11 18 -26z m-4095 -798 c297 -47 547 -87 554 -90 12 -4 17 -46 7 -57 -3 -2 -42 1 -87 9 -46 7 -299 47 -563 89 -264 42 -482 78 -484 79 -8 8 10 55 21 55 6 0 254 -38 552 -85z m2402 60 c4 -14 5 -28 3 -30 -2 -1 -220 -37 -484 -79 -264 -42 -517 -82 -563 -89 -45 -8 -84 -11 -87 -9 -10 11 -5 53 8 57 16 6 1066 173 1094 174 16 1 24 -6 29 -24z"/>
<path d="M5870 11949 c-80 -5 -158 -10 -173 -11 -25 -3 -33 -14 -72 -96 l-44 -93 93 -46 94 -46 198 143 c110 79 203 147 209 152 11 9 -100 8 -305 -3z"/>
<path d="M6625 11953 c6 -6 99 -74 209 -153 l198 -143 94 46 93 46 -44 93 -44 93 -88 6 c-200 15 -428 21 -418 12z"/>
<path d="M5960 11759 c-129 -99 -243 -188 -253 -198 -17 -17 -17 -22 3 -141 11 -68 22 -125 23 -126 4 -4 250 36 255 41 8 8 212 589 210 596 -2 5 -109 -73 -238 -172z"/>
<path d="M6600 11932 c0 -11 206 -591 212 -597 5 -5 251 -45 255 -41 7 7 43 248 38 256 -3 6 -113 91 -243 191 -130 100 -243 186 -249 192 -9 6 -13 6 -13 -1z"/>
<path d="M6146 11684 l-79 -246 74 -74 74 -73 73 70 c39 39 72 76 72 81 0 14 -121 461 -129 476 -4 7 -42 -98 -85 -234z"/>
<path d="M6556 11879 c-45 -160 -116 -428 -116 -437 0 -5 33 -42 73 -81 l72 -70 74 73 74 74 -78 243 c-42 134 -79 246 -81 248 -1 2 -10 -21 -18 -50z"/>
<path d="M5127 11825 c-126 -35 -231 -66 -234 -68 -4 -4 209 -75 430 -143 l58 -18 69 69 c39 38 70 72 70 75 0 16 -134 150 -148 149 -9 -1 -120 -30 -245 -64z"/>
<path d="M7346 11818 c-36 -40 -66 -75 -66 -78 0 -3 31 -37 70 -75 l69 -69 58 18 c320 99 436 140 418 147 -24 10 -461 129 -474 129 -5 0 -39 -32 -75 -72z"/>
<path d="M4880 11726 c0 -6 350 -466 376 -495 11 -12 30 -11 131 4 65 10 122 22 127 26 5 5 2 59 -9 132 l-18 125 -291 102 c-160 57 -297 105 -303 108 -7 2 -13 1 -13 -2z"/>
<path d="M7609 11623 l-296 -105 -18 -125 c-11 -73 -14 -127 -9 -132 5 -4 62 -16 127 -26 101 -15 120 -16 131 -4 23 25 376 489 376 494 0 9 -10 6 -311 -102z"/>
<path d="M4855 11643 c3 -38 10 -153 15 -257 5 -103 10 -189 12 -190 2 0 43 -20 92 -44 48 -24 90 -42 91 -40 1 2 23 44 48 94 l46 91 -141 194 c-77 107 -142 200 -145 207 -14 33 -23 5 -18 -55z"/>
<path d="M7927 11698 c-3 -7 -68 -100 -145 -207 l-141 -194 46 -91 c25 -50 47 -92 48 -94 1 -2 43 16 91 40 49 24 90 44 92 44 2 1 7 87 12 190 5 104 12 219 15 257 5 60 -4 88 -18 55z"/>
<path d="M4225 11531 l-230 -88 -12 -84 c-19 -137 -26 -124 76 -137 48 -7 95 -12 104 -12 12 0 307 387 307 404 0 10 -9 7 -245 -83z"/>
<path d="M8330 11615 c0 -18 294 -405 307 -405 9 0 56 5 104 12 102 13 95 0 76 137 l-12 84 -220 83 c-255 97 -255 97 -255 89z"/>
<path d="M4313 11342 l-183 -266 56 -106 c31 -58 60 -109 64 -113 4 -5 59 18 122 49 l115 57 8 319 c4 176 5 321 4 323 -2 1 -86 -117 -186 -263z"/>
<path d="M8304 11380 c3 -129 6 -276 6 -325 l0 -90 116 -58 c64 -32 120 -55 124 -50 4 4 33 55 64 113 l56 106 -161 234 c-89 129 -173 251 -186 270 l-25 35 6 -235z"/>
<path d="M4527 11348 c3 -139 8 -256 12 -260 10 -11 155 -88 166 -88 6 0 32 40 58 89 l47 89 -137 211 c-76 116 -141 211 -144 211 -4 0 -5 -114 -2 -252z"/>
<path d="M8127 11389 l-137 -211 47 -89 c26 -49 52 -89 58 -89 11 0 156 77 166 88 9 9 18 512 10 512 -3 0 -68 -95 -144 -211z"/>
<path d="M3523 11172 c-117 -75 -212 -140 -212 -144 -1 -5 114 -8 254 -8 l254 0 46 90 c26 49 47 92 47 96 0 4 -40 29 -89 55 l-88 48 -212 -137z"/>
<path d="M8973 11259 l-91 -50 48 -92 49 -92 256 -3 c140 -1 255 1 255 5 -1 7 -80 60 -399 265 -26 17 -28 16 -118 -33z"/>
<path d="M3315 10987 c11 -8 132 -91 268 -185 l249 -171 114 57 c63 31 114 60 114 64 0 5 -25 58 -55 118 -42 83 -60 111 -77 114 -13 3 -160 8 -328 11 -265 5 -302 4 -285 -8z"/>
<path d="M9050 10990 c-107 -3 -196 -7 -197 -8 -6 -5 -113 -222 -113 -230 0 -4 51 -33 114 -64 l114 -57 249 171 c136 94 257 177 268 184 22 15 -41 16 -435 4z"/>
<path d="M3290 10972 c0 -6 35 -99 146 -388 l35 -91 100 -13 c55 -7 102 -11 104 -9 2 2 10 48 18 103 l14 98 -96 71 c-53 39 -147 108 -208 154 -62 45 -113 79 -113 75z"/>
<path d="M9410 10906 c-53 -39 -145 -108 -206 -152 l-111 -81 14 -99 c8 -55 16 -101 18 -103 2 -2 49 2 104 9 74 10 102 17 106 29 69 174 176 463 174 465 -2 2 -47 -29 -99 -68z"/>
<path d="M2755 10614 c-104 -85 -192 -159 -194 -165 -6 -20 31 -199 42 -199 6 0 53 7 104 17 l93 16 76 236 c42 130 78 239 81 244 14 23 -32 -10 -202 -149z"/>
<path d="M2957 10688 c-14 -46 -56 -186 -92 -312 l-68 -228 89 -89 c49 -49 93 -89 99 -89 6 0 50 40 98 88 l88 88 -92 310 c-50 170 -93 310 -94 312 -2 2 -15 -34 -28 -80z"/>
<path d="M3010 10768 c0 -2 36 -111 79 -243 l78 -240 84 -17 c134 -27 123 -33 143 83 10 56 14 104 9 108 -31 27 -370 299 -380 305 -7 4 -13 6 -13 4z"/>
<path d="M9589 10614 c-107 -86 -196 -158 -197 -159 -2 -2 4 -49 14 -104 20 -116 9 -110 143 -83 l84 17 78 240 c43 132 77 241 75 242 -2 2 -90 -67 -197 -153z"/>
<path d="M9722 10458 l-93 -312 88 -88 c48 -48 92 -88 98 -88 6 0 50 40 99 89 l88 89 -87 298 c-48 165 -91 305 -94 312 -4 7 -49 -128 -99 -300z"/>
<path d="M9843 10763 c3 -5 39 -114 81 -244 l76 -236 93 -16 c51 -10 98 -17 104 -17 10 0 43 149 43 190 0 9 -88 87 -194 173 -178 143 -215 171 -203 150z"/>
<path d="M2186 10044 c-87 -107 -156 -197 -154 -198 1 -2 112 33 245 76 l241 79 11 62 c6 34 13 81 17 103 l6 42 -88 16 c-49 9 -96 16 -104 16 -9 0 -87 -88 -174 -196z"/>
<path d="M10326 10223 l-78 -15 6 -42 c4 -22 11 -69 17 -103 l11 -62 241 -79 c133 -43 244 -78 245 -76 2 1 -67 91 -154 198 -177 219 -153 205 -288 179z"/>
<path d="M2337 9911 c-164 -49 -300 -91 -302 -93 -3 -2 59 -23 138 -46 78 -23 218 -64 312 -92 l170 -50 87 87 c49 48 88 92 88 98 0 13 -172 185 -185 185 -6 -1 -144 -41 -308 -89z"/>
<path d="M10057 9912 c-48 -48 -87 -92 -87 -97 0 -6 39 -50 88 -98 l87 -87 313 92 c171 51 306 95 299 99 -13 7 -595 179 -606 179 -3 0 -46 -39 -94 -88z"/>
<path d="M2036 9778 c8 -12 282 -356 305 -382 4 -4 52 0 108 10 116 21 110 10 83 143 l-17 85 -225 73 c-124 40 -233 76 -244 79 -14 5 -16 3 -10 -8z"/>
<path d="M10520 9711 l-235 -77 -17 -85 c-27 -133 -33 -122 83 -143 56 -10 104 -14 108 -10 21 24 297 370 304 381 4 7 4 13 0 12 -4 0 -114 -35 -243 -78z"/>
<path d="M1830 9506 c0 -6 75 -110 231 -322 l66 -90 99 14 c55 8 101 16 103 17 2 2 -2 49 -9 104 l-12 100 -77 30 c-42 16 -141 54 -221 84 -80 31 -153 59 -162 62 -10 4 -18 4 -18 1z"/>
<path d="M10815 9454 c-77 -30 -181 -70 -231 -90 l-92 -35 -12 -100 c-7 -55 -11 -102 -9 -104 2 -1 48 -9 103 -17 l99 -14 66 90 c149 203 231 316 231 321 0 8 -10 5 -155 -51z"/>
<path d="M1805 9200 c3 -168 8 -315 11 -328 3 -17 31 -35 114 -77 60 -30 113 -55 118 -55 9 0 117 210 116 226 -1 9 -339 508 -361 534 -3 3 -2 -132 2 -300z"/>
<path d="M10816 9238 c-98 -143 -179 -266 -180 -272 -1 -16 107 -226 116 -226 5 0 58 25 118 55 83 42 111 60 114 77 6 27 19 628 14 628 -2 -1 -83 -118 -182 -262z"/>
<path d="M1630 9279 c-74 -115 -134 -215 -132 -222 2 -6 24 -48 48 -93 l44 -81 95 49 95 49 0 255 c0 139 -3 254 -7 253 -5 0 -69 -94 -143 -210z"/>
<path d="M11020 9236 l0 -255 95 -49 95 -49 44 81 c24 45 46 87 48 93 3 13 -262 432 -274 432 -5 1 -8 -114 -8 -253z"/>
<path d="M1437 8816 l-79 -11 -89 -234 c-49 -129 -87 -236 -85 -239 3 -2 95 62 205 143 150 110 201 152 201 168 0 12 -5 58 -12 104 -14 95 -2 89 -141 69z"/>
<path d="M11222 8747 c-7 -46 -12 -92 -12 -104 0 -16 51 -58 201 -168 110 -81 202 -145 205 -143 2 3 -36 110 -85 239 l-89 234 -84 12 c-134 19 -122 25 -136 -70z"/>
<path d="M1458 8487 c-146 -100 -264 -184 -263 -185 2 -2 147 0 323 4 l319 7 57 115 c32 63 54 118 49 123 -4 4 -55 32 -113 63 l-106 56 -266 -183z"/>
<path d="M10970 8614 c-58 -31 -109 -59 -113 -63 -5 -5 17 -60 49 -123 l57 -115 319 -7 c176 -4 321 -6 323 -4 2 2 -406 287 -504 350 -26 17 -28 16 -131 -38z"/>
<path d="M1200 8271 c0 -3 95 -68 212 -143 l211 -138 88 47 c49 26 89 52 89 56 0 17 -83 169 -94 172 -20 6 -506 12 -506 6z"/>
<path d="M11296 8270 l-210 -5 -43 -80 c-23 -44 -43 -85 -43 -90 0 -6 40 -32 89 -58 l88 -47 211 138 c117 75 212 140 212 145 0 4 -21 6 -47 5 -27 -1 -142 -5 -257 -8z"/>
<path d="M1100 7936 c8 -8 103 -78 210 -154 l194 -140 91 45 c49 25 91 47 93 48 2 1 -16 43 -40 91 -24 49 -43 90 -44 92 -1 1 -82 7 -180 12 -99 5 -215 12 -259 15 -71 5 -78 4 -65 -9z"/>
<path d="M11427 7934 c-126 -7 -229 -14 -230 -16 -27 -51 -87 -181 -85 -183 2 -1 44 -23 93 -48 l91 -45 194 140 c107 76 202 146 210 154 12 12 11 14 -15 13 -17 -1 -133 -8 -258 -15z"/>
<path d="M1070 7922 c0 -4 48 -142 106 -308 l107 -300 124 -18 c70 -10 128 -14 133 -10 4 5 16 62 25 127 15 101 16 120 4 131 -37 35 -499 384 -499 378z"/>
<path d="M11478 7736 c-136 -105 -250 -194 -254 -198 -8 -9 25 -239 36 -252 5 -4 63 0 133 10 l124 18 108 303 c59 167 106 305 104 307 -2 1 -115 -83 -251 -188z"/>
<path d="M1036 7893 c-16 -54 -126 -466 -126 -473 0 -4 34 -39 76 -76 l75 -67 70 69 c38 37 69 74 69 81 0 14 -147 473 -154 480 -2 3 -7 -4 -10 -14z"/>
<path d="M11681 7691 c-39 -121 -74 -232 -77 -248 -4 -24 4 -37 65 -97 l70 -69 75 67 c42 37 76 72 76 76 0 14 -128 482 -133 487 -3 2 -37 -95 -76 -216z"/>
<path d="M954 7174 l-91 -44 -6 -112 c-16 -285 -19 -403 -10 -393 6 6 74 99 153 209 l143 198 -44 90 c-24 49 -46 91 -49 92 -3 2 -46 -16 -96 -40z"/>
<path d="M11703 7126 l-46 -94 143 -198 c79 -110 147 -203 153 -209 9 -10 3 218 -12 418 l-6 88 -93 44 -93 44 -46 -93z"/>
<path d="M1221 7073 c-106 -133 -359 -468 -356 -471 4 -4 575 195 594 207 10 7 54 251 47 259 -4 3 -226 42 -243 42 -7 0 -26 -17 -42 -37z"/>
<path d="M11401 7090 c-57 -11 -105 -20 -106 -22 -8 -8 36 -252 46 -259 19 -12 590 -211 594 -207 2 2 -83 116 -188 253 -154 200 -197 250 -217 252 -14 1 -72 -7 -129 -17z"/>
<path d="M1107 6652 c-130 -42 -232 -79 -225 -83 7 -4 119 -35 248 -69 l235 -62 72 73 72 74 -72 73 c-39 39 -76 72 -82 71 -5 0 -117 -35 -248 -77z"/>
<path d="M11363 6658 l-72 -73 72 -74 72 -73 235 62 c129 34 241 65 248 69 9 5 -454 162 -478 161 -3 0 -38 -33 -77 -72z"/>
<path d="M1107 6296 c-125 -35 -230 -66 -232 -68 -3 -3 25 -14 62 -26 38 -11 148 -46 247 -77 l179 -57 73 73 73 73 -67 70 c-37 39 -76 72 -87 73 -11 1 -123 -27 -248 -61z"/>
<path d="M11358 6286 l-67 -72 73 -73 73 -73 179 57 c99 31 210 66 247 78 41 12 63 23 55 28 -19 10 -465 129 -480 128 -7 0 -43 -33 -80 -73z"/>
<path d="M867 6188 c6 -7 92 -120 192 -250 100 -131 186 -240 191 -243 8 -5 250 32 257 38 5 5 -37 251 -44 257 -9 8 -584 210 -597 210 -5 0 -4 -6 1 -12z"/>
<path d="M11628 6097 c-158 -57 -290 -105 -293 -109 -6 -5 -46 -251 -42 -255 7 -6 249 -43 257 -38 5 3 91 112 191 243 100 130 186 243 192 250 6 8 5 12 -4 11 -8 0 -143 -46 -301 -102z"/>
<path d="M845 6015 c4 -93 10 -210 14 -258 l6 -88 93 -44 93 -44 46 93 46 93 -143 199 c-78 110 -147 204 -152 209 -7 7 -7 -49 -3 -160z"/>
<path d="M11806 5974 l-149 -207 46 -93 46 -93 91 43 c49 23 92 45 94 47 6 6 29 484 25 498 -3 7 -71 -81 -153 -195z"/>
<path d="M981 5452 l-74 -68 63 -234 c35 -129 66 -241 70 -249 6 -11 131 351 156 452 6 26 0 36 -62 98 -38 38 -71 69 -74 69 -3 0 -38 -31 -79 -68z"/>
<path d="M1379 5503 l-96 -16 -107 -300 c-58 -165 -104 -302 -102 -304 2 -3 117 82 255 188 189 145 251 198 250 213 0 12 -8 68 -17 126 l-17 105 -35 2 c-19 0 -78 -6 -131 -14z"/>
<path d="M11257 5513 c-3 -5 -12 -61 -22 -126 -15 -101 -16 -120 -4 -131 39 -36 491 -377 495 -373 2 2 -44 139 -102 304 l-107 300 -111 17 c-124 18 -143 19 -149 9z"/>
<path d="M11666 5451 c-62 -62 -68 -72 -62 -98 25 -101 150 -463 156 -452 4 8 35 120 70 249 l63 234 -74 68 c-41 37 -76 68 -79 68 -3 0 -36 -31 -74 -69z"/>
<path d="M1308 5018 c-106 -77 -200 -143 -208 -148 -8 -5 -13 -10 -10 -13 5 -4 322 9 445 19 l70 6 40 86 c22 47 40 89 40 94 0 5 -41 29 -92 52 l-91 44 -194 -140z"/>
<path d="M11205 5114 c-49 -24 -90 -47 -90 -52 0 -5 18 -47 40 -94 l40 -86 70 -6 c123 -10 440 -23 445 -19 3 3 -2 8 -10 13 -8 5 -98 69 -200 142 -102 74 -189 136 -195 140 -5 3 -50 -14 -100 -38z"/>
<path d="M1420 4679 c-107 -71 -202 -134 -210 -139 -8 -4 -13 -10 -10 -13 3 -2 119 -1 259 2 l253 6 44 80 c24 44 44 85 44 91 0 9 -151 97 -175 101 -5 1 -98 -57 -205 -128z"/>
<path d="M11085 4763 c-44 -25 -82 -47 -85 -50 -7 -6 82 -175 95 -178 20 -7 505 -12 505 -6 0 7 -409 275 -424 278 -6 1 -47 -19 -91 -44z"/>
<path d="M1320 4409 c74 -51 196 -135 270 -185 l134 -93 106 56 c58 31 109 59 113 63 5 4 -18 60 -50 124 l-58 116 -81 0 c-44 0 -191 3 -325 6 l-244 6 135 -93z"/>
<path d="M11130 4493 l-166 -3 -57 -117 c-32 -63 -55 -119 -50 -123 4 -4 55 -32 113 -63 l106 -56 134 93 c74 50 195 133 269 184 l135 92 -160 -2 c-87 -1 -233 -4 -324 -5z"/>
<path d="M1180 4471 c0 -4 40 -113 89 -242 l90 -234 83 -12 c136 -19 123 -26 136 76 7 48 12 95 12 104 0 8 -92 83 -205 166 -113 82 -205 146 -205 142z"/>
<path d="M11420 4333 c-107 -79 -199 -148 -204 -153 -5 -5 -3 -50 4 -109 15 -116 1 -107 138 -88 l83 12 90 235 c49 129 88 237 87 240 -2 3 -91 -59 -198 -137z"/>
<path d="M1925 4002 l-110 -57 -8 -280 c-4 -154 -6 -299 -5 -321 l3 -42 179 261 c98 143 179 266 180 271 1 19 -108 226 -119 226 -5 -1 -59 -26 -120 -58z"/>
<path d="M10690 3953 c-30 -60 -54 -113 -54 -119 1 -5 82 -128 180 -271 l179 -261 3 42 c1 22 -1 167 -5 321 l-8 280 -110 57 c-60 32 -115 57 -120 58 -6 0 -35 -48 -65 -107z"/>
<path d="M1546 3837 c-24 -45 -46 -88 -48 -94 -3 -13 262 -432 275 -432 4 -1 6 114 5 254 l-3 256 -92 49 -92 48 -45 -81z"/>
<path d="M11113 3868 l-93 -49 0 -255 c0 -140 3 -254 8 -253 4 0 69 95 144 212 l137 212 -46 85 c-25 47 -48 88 -52 91 -3 3 -48 -16 -98 -43z"/>
<path d="M2072 3631 c-31 -42 -100 -136 -154 -208 -54 -73 -95 -133 -92 -133 5 0 312 115 465 175 13 5 20 30 29 106 7 55 11 102 9 104 -2 2 -48 10 -103 18 l-98 14 -56 -76z"/>
<path d="M10570 3693 c-52 -8 -97 -16 -99 -18 -2 -2 2 -49 9 -104 9 -76 16 -101 29 -106 150 -58 460 -175 464 -175 7 0 -268 377 -292 401 -14 14 -26 14 -111 2z"/>
<path d="M2187 3213 c-86 -108 -156 -197 -154 -199 3 -3 397 124 458 147 24 9 28 19 43 99 9 48 16 94 16 102 0 10 -27 19 -97 31 -54 10 -100 17 -103 17 -3 0 -76 -89 -163 -197z"/>
<path d="M10333 3392 c-59 -11 -83 -19 -83 -30 0 -8 7 -54 16 -102 15 -80 19 -90 43 -99 62 -24 455 -150 458 -147 2 2 -67 90 -153 197 -109 135 -163 194 -178 195 -11 1 -58 -5 -103 -14z"/>
<path d="M2333 3077 c-167 -50 -301 -92 -300 -94 4 -3 122 -39 425 -128 l194 -58 89 89 c49 49 89 93 89 99 0 14 -173 185 -185 184 -6 -1 -146 -42 -312 -92z"/>
<path d="M10058 3083 c-49 -49 -88 -93 -88 -98 0 -6 40 -50 89 -99 l89 -89 194 58 c304 89 421 125 425 128 2 3 -504 155 -607 184 -9 2 -51 -32 -102 -84z"/>
<path d="M2030 2954 c0 -15 317 -394 330 -394 8 0 55 7 104 16 l88 16 -6 42 c-4 22 -11 69 -17 103 l-11 63 -216 71 c-256 84 -272 89 -272 83z"/>
<path d="M10523 2879 l-241 -79 -11 -63 c-6 -34 -13 -81 -17 -103 l-6 -42 88 -16 c49 -9 96 -16 104 -16 14 0 336 387 328 395 -1 2 -112 -32 -245 -76z"/>
<path d="M2886 2741 l-89 -89 88 -299 c49 -164 91 -304 95 -311 3 -7 48 128 98 300 l92 313 -87 87 c-48 49 -92 88 -98 88 -6 0 -50 -40 -99 -89z"/>
<path d="M9717 2742 l-87 -87 92 -313 c50 -172 95 -307 98 -300 4 7 46 147 95 311 l88 299 -89 89 c-49 49 -93 89 -99 89 -6 0 -50 -39 -98 -88z"/>
<path d="M2574 2453 c-10 -59 -13 -101 -8 -109 12 -17 385 -317 388 -312 2 1 -32 112 -75 244 l-79 241 -89 17 c-49 9 -96 16 -104 16 -11 0 -20 -25 -33 -97z"/>
<path d="M3246 2531 l-79 -16 -78 -240 c-43 -131 -77 -241 -75 -242 2 -2 306 240 394 313 2 1 -4 48 -14 103 -20 117 -10 111 -148 82z"/>
<path d="M9406 2449 c-10 -55 -16 -102 -14 -103 88 -73 392 -315 394 -313 2 1 -32 111 -75 242 l-78 240 -84 17 c-134 27 -123 33 -143 -83z"/>
<path d="M10077 2533 l-77 -15 -79 -242 c-43 -132 -77 -243 -75 -244 3 -5 376 295 388 312 5 8 2 50 -8 109 -20 112 -10 106 -149 80z"/>
<path d="M3545 2318 c-38 -5 -71 -11 -73 -13 -8 -8 -181 -469 -178 -473 9 -8 411 295 409 309 -1 8 -7 53 -13 102 l-12 87 -32 -1 c-17 -1 -62 -6 -101 -11z"/>
<path d="M9110 2243 c-6 -49 -12 -94 -13 -102 -2 -14 400 -317 409 -309 2 2 -28 87 -67 189 -39 101 -79 207 -90 235 l-19 51 -88 12 c-49 6 -95 11 -104 11 -12 0 -19 -19 -28 -87z"/>
<path d="M3569 1989 c-145 -100 -266 -183 -269 -186 -6 -5 598 7 628 13 17 3 35 31 77 114 30 60 55 113 55 117 0 6 -150 88 -220 121 -4 1 -125 -79 -271 -179z"/>
<path d="M8855 2114 c-55 -29 -104 -55 -110 -57 -13 -5 95 -226 115 -237 8 -4 157 -10 330 -14 l314 -7 -39 28 c-120 86 -485 334 -497 337 -7 2 -58 -20 -113 -50z"/>
<path d="M4191 1838 c-59 -111 -60 -113 -43 -139 75 -114 348 -506 351 -504 1 2 0 147 -4 323 l-8 319 -113 56 c-63 32 -116 57 -119 57 -2 0 -31 -51 -64 -112z"/>
<path d="M8424 1893 l-111 -56 -8 -319 c-4 -176 -5 -321 -4 -322 2 -2 86 116 186 262 l182 266 -58 110 c-32 61 -63 111 -67 113 -5 1 -59 -23 -120 -54z"/>
<path d="M4625 1764 c-43 -24 -82 -48 -86 -52 -9 -9 -19 -512 -10 -512 5 0 240 354 268 406 11 19 7 33 -38 113 -28 50 -51 91 -52 90 -1 -1 -38 -21 -82 -45z"/>
<path d="M8054 1742 c-20 -37 -43 -77 -51 -90 -11 -18 -11 -26 -1 -45 28 -51 263 -407 269 -407 8 0 -1 503 -10 512 -3 4 -43 27 -89 52 l-82 44 -36 -66z"/>
<path d="M3310 1775 c0 -3 96 -68 212 -145 l213 -139 86 47 c48 26 88 51 89 55 1 4 -19 48 -45 97 l-46 90 -254 0 c-140 0 -255 -2 -255 -5z"/>
<path d="M8935 1690 c-26 -49 -47 -92 -47 -96 0 -4 40 -29 89 -55 l88 -48 213 139 c116 77 212 142 212 145 0 3 -115 5 -255 5 l-254 0 -46 -90z"/>
<path d="M4970 1647 c-47 -23 -86 -43 -88 -43 -2 -1 -7 -87 -12 -190 -5 -104 -12 -220 -15 -259 -5 -62 -4 -68 9 -55 8 8 78 102 154 209 l139 194 -43 91 c-23 50 -47 92 -51 93 -4 1 -46 -17 -93 -40z"/>
<path d="M7713 1653 c-8 -21 -28 -63 -43 -93 l-28 -56 139 -194 c77 -107 147 -202 155 -210 13 -13 14 -7 9 55 -3 39 -10 155 -15 259 -5 103 -10 189 -12 190 -2 0 -42 20 -91 44 -48 23 -90 42 -93 42 -3 0 -12 -17 -21 -37z"/>
<path d="M4038 1577 c-78 -11 -73 0 -55 -135 l12 -83 234 -90 c129 -49 238 -89 242 -89 5 0 -59 92 -142 205 -171 232 -143 214 -291 192z"/>
<path d="M8471 1385 c-83 -113 -147 -205 -142 -205 4 0 113 40 242 89 l234 90 12 83 c19 136 25 123 -69 136 -46 7 -93 12 -105 12 -16 0 -57 -48 -172 -205z"/>
<path d="M5071 1329 c-106 -138 -191 -252 -189 -255 3 -2 140 44 305 103 l300 107 18 124 c11 72 14 126 9 131 -9 8 -196 41 -232 41 -13 0 -80 -79 -211 -251z"/>
<path d="M7383 1561 c-50 -9 -95 -19 -99 -23 -4 -4 1 -63 11 -131 l18 -123 300 -107 c165 -59 302 -105 305 -103 2 3 -83 117 -189 255 -219 286 -182 261 -346 232z"/>
<path d="M5730 1505 c0 -3 -9 -60 -21 -126 -18 -102 -19 -123 -8 -135 36 -35 494 -382 497 -375 3 8 -202 589 -211 597 -3 3 -47 12 -98 20 -52 8 -109 16 -126 19 -18 3 -33 3 -33 0z"/>
<path d="M6141 1436 l-74 -74 78 -244 c42 -133 79 -245 81 -247 3 -4 11 24 84 293 28 103 50 193 48 200 -2 6 -35 41 -74 78 l-70 67 -73 -73z"/>
<path d="M6511 1438 l-74 -71 10 -41 c25 -100 116 -432 122 -444 4 -7 42 98 85 234 l79 246 -74 74 -74 73 -74 -71z"/>
<path d="M6932 1490 c-62 -10 -116 -20 -119 -23 -9 -10 -214 -590 -211 -598 3 -7 461 340 497 375 11 12 10 33 -8 135 -12 66 -21 123 -21 126 0 7 -5 6 -138 -15z"/>
<path d="M5345 1195 c-5 -2 -111 -36 -233 -75 -123 -40 -222 -74 -219 -76 5 -5 475 -134 488 -134 4 0 38 34 75 76 l67 75 -69 70 c-63 63 -81 74 -109 64z"/>
<path d="M7346 1131 l-69 -70 67 -75 c37 -42 71 -76 75 -76 13 0 483 129 488 134 5 5 -416 142 -464 152 -24 4 -37 -4 -97 -65z"/>
<path d="M5668 1095 l-87 -45 43 -90 c23 -50 45 -92 47 -94 6 -6 499 -29 504 -24 6 5 -400 298 -412 297 -4 0 -47 -20 -95 -44z"/>
<path d="M6827 996 c-109 -79 -201 -147 -205 -151 -7 -7 245 1 421 14 l88 6 44 93 44 92 -89 45 c-49 25 -93 45 -97 45 -5 -1 -97 -65 -206 -144z"/>
</g>
</svg>